<?xml version="1.0" encoding="UTF-8" ?>
<!DOCTYPE svg PUBLIC "-//W3C//DTD SVG 1.1//EN" "http://www.w3.org/Graphics/SVG/1.1/DTD/svg11.dtd">
<svg width="64pt" height="64pt" viewBox="0 0 64 64" version="1.1" xmlns="http://www.w3.org/2000/svg">
<path fill="#ffffff" d=" M 0.00 0.00 L 64.00 0.00 L 64.00 64.00 L 0.00 64.00 L 0.00 0.00 Z" />
<path fill="#000000" d=" M 29.29 0.70 C 31.24 1.45 31.82 3.63 32.79 5.28 C 38.00 15.75 43.68 26.00 48.46 36.67 C 44.92 36.82 41.37 36.85 37.82 36.93 C 39.35 40.42 40.97 43.86 42.95 47.12 C 45.16 43.89 46.69 40.28 48.45 36.79 C 50.72 36.65 53.01 36.73 55.28 36.94 C 55.63 40.02 53.75 42.68 52.54 45.37 C 49.38 51.41 46.73 57.75 42.99 63.47 C 38.20 54.78 33.58 45.96 29.47 36.92 C 32.02 36.70 34.57 36.49 37.13 36.51 C 34.94 31.82 32.53 27.22 29.87 22.78 C 26.98 27.07 25.45 32.19 22.27 36.26 C 18.88 37.42 14.96 37.00 11.47 36.33 C 17.21 24.35 23.22 12.51 29.29 0.70 Z" />
</svg>
